<svg width="26" height="28" viewBox="0 0 26 28" fill="none" xmlns="http://www.w3.org/2000/svg">
<g id="Iconly/Bold/Home">
<g id="Home">
<path id="Vector" d="M9.17962 25.8918V21.8148C9.17962 20.7741 10.0295 19.9304 11.0778 19.9304H14.9101C15.4135 19.9304 15.8963 20.129 16.2523 20.4823C16.6083 20.8357 16.8083 21.3151 16.8083 21.8148V25.8918C16.8051 26.3245 16.976 26.7405 17.2831 27.0476C17.5902 27.3546 18.008 27.5273 18.4438 27.5273H21.0584C22.2794 27.5305 23.4516 27.0511 24.3161 26.1951C25.1807 25.339 25.6666 24.1766 25.6666 22.9644V11.3498C25.6666 10.3706 25.2293 9.4418 24.4727 8.81356L15.5786 1.76183C14.0315 0.525421 11.8147 0.565341 10.3138 1.85664L1.6226 8.81356C0.830239 9.42327 0.356655 10.3549 0.333252 11.3498V22.9526C0.333252 25.4791 2.39643 27.5273 4.94148 27.5273H7.4963C8.40155 27.5273 9.13725 26.8023 9.14381 25.9036L9.17962 25.8918Z" fill="#5D7285"/>
</g>
</g>
</svg>
