<svg width="30" height="22" viewBox="0 0 30 22" fill="none" xmlns="http://www.w3.org/2000/svg">
<g id="Iconly/Bold/3-User">
<g id="3-User">
<path id="3-Friends" d="M14.932 14.5802C19.5069 14.5802 23.4132 15.3054 23.4132 18.2078C23.4132 21.109 19.5319 21.8607 14.932 21.8607C10.357 21.8607 6.4507 21.1354 6.4507 18.2342C6.4507 15.3319 10.332 14.5802 14.932 14.5802ZM22.2467 12.8325C23.9957 12.8001 25.876 13.0402 26.5709 13.2108C28.0429 13.5002 29.0111 14.0909 29.4123 14.9495C29.7513 15.6544 29.7513 16.4722 29.4123 17.1758C28.7986 18.5075 26.8204 18.935 26.0515 19.0455C25.8928 19.0695 25.765 18.9314 25.7817 18.7717C26.1745 15.0816 23.0502 13.332 22.2419 12.9298C22.2073 12.9118 22.2001 12.8841 22.2037 12.8673C22.2061 12.8553 22.2204 12.8361 22.2467 12.8325ZM7.42469 12.83L7.75405 12.833C7.78032 12.8366 7.79345 12.8558 7.79584 12.8666C7.79942 12.8846 7.79225 12.911 7.75883 12.9302C6.94938 13.3325 3.82502 15.0821 4.21781 18.771C4.23452 18.9319 4.10797 19.0688 3.94919 19.046C3.18033 18.9355 1.20209 18.508 0.588442 17.1763C0.248189 16.4714 0.248189 15.6549 0.588442 14.95C0.989582 14.0914 1.95662 13.5006 3.42866 13.21C4.12469 13.0407 6.00384 12.8006 7.75405 12.833L7.42469 12.83ZM14.932 0.527332C18.0468 0.527332 20.5443 3.03702 20.5443 6.17113C20.5443 9.30405 18.0468 11.8161 14.932 11.8161C11.8171 11.8161 9.31957 9.30405 9.31957 6.17113C9.31957 3.03702 11.8171 0.527332 14.932 0.527332ZM22.5511 1.46853C25.5597 1.46853 27.9223 4.31564 27.1177 7.48698C26.5745 9.62202 24.6082 11.0402 22.4174 10.9825C22.1977 10.9765 21.9816 10.9561 21.7727 10.9201C21.6211 10.8937 21.5447 10.722 21.6306 10.5947C22.4664 9.35784 22.9427 7.87004 22.9427 6.27296C22.9427 4.60624 22.4222 3.05239 21.5184 1.77834C21.4898 1.73871 21.4683 1.67747 21.4969 1.63184C21.5208 1.59461 21.565 1.5754 21.6068 1.56579C21.9112 1.50335 22.224 1.46853 22.5511 1.46853ZM7.44782 1.46841C7.77494 1.46841 8.08774 1.50323 8.39337 1.56567C8.43396 1.57528 8.47933 1.59569 8.5032 1.63172C8.53066 1.67735 8.51037 1.73859 8.48171 1.77822C7.57795 3.05227 7.05743 4.60612 7.05743 6.27284C7.05743 7.86992 7.53378 9.35772 8.36949 10.5946C8.45545 10.7218 8.37904 10.8936 8.22742 10.92C8.0173 10.9572 7.8024 10.9764 7.58273 10.9824C5.39198 11.0401 3.42567 9.6219 2.88246 7.48686C2.0766 4.31552 4.43927 1.46841 7.44782 1.46841Z" fill="#5D7285"/>
</g>
</g>
</svg>
